<svg width="24" height="25" viewBox="0 0 24 25" fill="none" xmlns="http://www.w3.org/2000/svg">
<path d="M21.75 1.0625H2.25C1.80756 1.05799 1.3814 1.22919 1.06504 1.53853C0.74867 1.84786 0.56794 2.27006 0.5625 2.7125V22.2912C0.568923 22.733 0.750087 23.1543 1.06634 23.4628C1.3826 23.7713 1.8082 23.942 2.25 23.9375H21.75C22.1925 23.941 22.6183 23.7692 22.9345 23.4597C23.2507 23.1502 23.4316 22.7281 23.4375 22.2856V2.70687C23.4296 2.26574 23.2479 1.84555 22.9319 1.53763C22.6159 1.22972 22.1912 1.05897 21.75 1.0625Z" fill="#0076B2"/>
<path d="M3.94871 9.63687H7.34434V20.5625H3.94871V9.63687ZM5.64746 4.19937C6.03692 4.19937 6.41764 4.31488 6.74144 4.5313C7.06523 4.74771 7.31757 5.0553 7.46653 5.41515C7.61548 5.775 7.65436 6.17094 7.57824 6.5529C7.50213 6.93485 7.31444 7.28564 7.03891 7.5609C6.76339 7.83616 6.41242 8.02352 6.0304 8.09927C5.64837 8.17502 5.25246 8.13577 4.89275 7.98647C4.53304 7.83717 4.2257 7.58454 4.00959 7.26054C3.79349 6.93653 3.67834 6.55571 3.67871 6.16625C3.67921 5.64443 3.88685 5.14415 4.25601 4.77534C4.62517 4.40653 5.12564 4.19937 5.64746 4.19937ZM9.47434 9.63687H12.7293V11.1369H12.7743C13.2281 10.2781 14.3343 9.3725 15.9862 9.3725C19.425 9.365 20.0625 11.6281 20.0625 14.5625V20.5625H16.6668V15.2469C16.6668 13.9812 16.6443 12.3519 14.9025 12.3519C13.1606 12.3519 12.8643 13.7319 12.8643 15.1644V20.5625H9.47434V9.63687Z" fill="white"/>
</svg>
